<svg width="61" height="80" viewBox="0 0 61 80" fill="none" xmlns="http://www.w3.org/2000/svg">
<path fill-rule="evenodd" clip-rule="evenodd" d="M28 5C28 3.34315 29.3431 2 31 2C32.6569 2 34 3.34315 34 5H28ZM26 5C26 2.23858 28.2386 0 31 0C33.7614 0 36 2.23858 36 5H55.5349C57.4486 5 59 6.567 59 8.5C59 10.433 57.4486 12 55.5349 12H55.1167L52.4319 37H55.0349C57.2248 37 59 38.7909 59 41C59 42.883 57.7103 44.4621 55.9734 44.8873C55.673 49.882 52.8513 54.3174 48.5706 57.5279C47.3808 58.4203 46.075 59.2212 44.6727 59.9172L49.2474 77.9786H59.5C60.0523 77.9786 60.5 78.4311 60.5 78.9893C60.5 79.5475 60.0523 80 59.5 80H1C0.447715 80 0 79.5475 0 78.9893C0 78.4311 0.447715 77.9786 1 77.9786H12.1752L16.7659 59.6303C15.5753 59.0037 14.4589 58.3001 13.4294 57.5279C9.14873 54.3174 6.32699 49.882 6.02662 44.8873C4.28972 44.4621 3 42.883 3 41C3 38.7909 4.77523 37 6.96508 37H8.61112L5.9217 11.9572C4.26612 11.6938 3 10.2463 3 8.5C3 6.567 4.55137 5 6.46508 5H26ZM5 8.5C5 7.68271 5.65594 7.02016 6.46508 7.02016H55.5349C56.3441 7.02016 57 7.6827 57 8.5C57 9.31729 56.3441 9.97984 55.5349 9.97984H6.46508C5.65594 9.97984 5 9.3173 5 8.5ZM53.1052 12L50.4204 37H10.6226L7.93778 12H53.1052ZM14.6294 55.9279C10.7795 53.0405 8.3711 49.1976 8.03942 45H53.9606C53.6289 49.1976 51.2205 53.0405 47.3706 55.9279C43.2165 59.0434 37.432 61 31 61C24.568 61 18.7835 59.0434 14.6294 55.9279ZM31 63C35.2653 63 39.2933 62.1899 42.821 60.7521L47.1946 77.9786H14.2265L18.6074 60.5117C22.2689 62.0993 26.5025 63 31 63ZM55.0349 39.0176H6.96508C5.8798 39.0176 5 39.9052 5 41C5 42.0948 5.8798 42.9824 6.96508 42.9824H55.0349C56.1202 42.9824 57 42.0948 57 41C57 39.9052 56.1202 39.0176 55.0349 39.0176Z" fill="#151716"/>
</svg>
